<svg width="32" height="32" viewBox="0 0 32 32" fill="none" xmlns="http://www.w3.org/2000/svg">
<g clip-path="url(#clip0_4113_2315)">
<path d="M16 16.1362V28.9962" stroke="black" stroke-width="2" stroke-linecap="round" stroke-linejoin="round"/>
<path d="M4.08789 9.61499L16.0004 16.135L27.9129 9.61499" stroke="black" stroke-width="2" stroke-linecap="round" stroke-linejoin="round"/>
<path d="M27.48 22.8549L16.48 28.8774C16.3328 28.958 16.1678 29.0002 16 29.0002C15.8322 29.0002 15.6672 28.958 15.52 28.8774L4.52 22.8549C4.36293 22.769 4.23181 22.6425 4.14035 22.4885C4.04888 22.3346 4.00041 22.159 4 21.9799V10.0224C4.00041 9.84339 4.04888 9.66773 4.14035 9.51382C4.23181 9.3599 4.36293 9.23337 4.52 9.14743L15.52 3.12493C15.6672 3.0444 15.8322 3.0022 16 3.0022C16.1678 3.0022 16.3328 3.0444 16.48 3.12493L27.48 9.14743C27.6371 9.23337 27.7682 9.3599 27.8597 9.51382C27.9511 9.66773 27.9996 9.84339 28 10.0224V21.9774C28 22.1569 27.9518 22.3331 27.8603 22.4875C27.7688 22.6419 27.6374 22.7688 27.48 22.8549Z" stroke="black" stroke-width="2" stroke-linecap="round" stroke-linejoin="round"/>
<path d="M10.1953 6.03882L22.0003 12.5001V19.0001" stroke="black" stroke-width="2" stroke-linecap="round" stroke-linejoin="round"/>
</g>
<defs>
<clipPath id="clip0_4113_2315">
<rect width="32" height="32" fill="white"/>
</clipPath>
</defs>
</svg>
