<svg width="27" height="27" viewBox="0 0 27 27" fill="none" xmlns="http://www.w3.org/2000/svg">
<g clip-path="url(#clip0_4428_2579)">
<path d="M13.5 13.615V24.4656" stroke="#008ABD" stroke-width="2" stroke-linecap="round" stroke-linejoin="round"/>
<path d="M3.44885 8.11255L13.5 13.6138L23.5512 8.11255" stroke="#008ABD" stroke-width="2" stroke-linecap="round" stroke-linejoin="round"/>
<path d="M23.1862 19.2839L13.905 24.3654C13.7808 24.4334 13.6415 24.469 13.5 24.469C13.3585 24.469 13.2192 24.4334 13.095 24.3654L3.81375 19.2839C3.68122 19.2114 3.57059 19.1047 3.49342 18.9748C3.41624 18.8449 3.37534 18.6967 3.375 18.5457V8.45652C3.37534 8.30546 3.41624 8.15725 3.49342 8.02738C3.57059 7.89752 3.68122 7.79075 3.81375 7.71824L13.095 2.63676C13.2192 2.56881 13.3585 2.5332 13.5 2.5332C13.6415 2.5332 13.7808 2.56881 13.905 2.63676L23.1862 7.71824C23.3188 7.79075 23.4294 7.89752 23.5066 8.02738C23.5838 8.15725 23.6247 8.30546 23.625 8.45652V18.5436C23.625 18.695 23.5843 18.8436 23.5071 18.9739C23.4299 19.1042 23.3191 19.2113 23.1862 19.2839Z" stroke="#008ABD" stroke-width="2" stroke-linecap="round" stroke-linejoin="round"/>
<path d="M8.60205 5.09521L18.5625 10.5469V16.0313" stroke="#008ABD" stroke-width="2" stroke-linecap="round" stroke-linejoin="round"/>
</g>
<defs>
<clipPath id="clip0_4428_2579">
<rect width="27" height="27" fill="white"/>
</clipPath>
</defs>
</svg>
