<svg width="31" height="28" viewBox="0 0 31 28" fill="none" xmlns="http://www.w3.org/2000/svg">
<path d="M29.6809 12.1917V0H18.2924V9.625C18.2924 14.8361 18.9021 18.5889 20.1216 20.8833C21.8132 24.0333 24.4489 26.4056 28.0287 28L30.625 23.8583C28.5007 23.0028 26.9272 21.6611 25.9044 19.8333C24.8422 17.9667 24.2522 15.4194 24.1342 12.1917H29.6809ZM11.3885 12.1917V0H-4.4331e-07V9.625C-4.4331e-07 14.8361 0.609746 18.5889 1.82924 20.8833C3.52079 24.0333 6.15647 26.4056 9.73627 28L12.3326 23.8583C10.2083 23.0028 8.63479 21.6611 7.61199 19.8333C6.54986 17.9667 5.95978 15.4194 5.84176 12.1917H11.3885Z" fill="#008ABD"/>
</svg>
