<svg width="80" height="40" viewBox="0 0 80 40" fill="none" xmlns="http://www.w3.org/2000/svg">
<rect x="0.5" y="0.5" width="79" height="39" rx="4.5" stroke="#9747FF" stroke-dasharray="10 5"/>
<path d="M30.4234 17.1182C30.3297 16.83 30.1527 16.5759 29.9148 16.3881C29.6769 16.2002 29.3887 16.087 29.0866 16.0626L23.5553 15.6164L21.4197 10.4517C21.3042 10.1703 21.1076 9.92953 20.855 9.76012C20.6023 9.5907 20.305 9.50024 20.0008 9.50024C19.6966 9.50024 19.3992 9.5907 19.1466 9.76012C18.8939 9.92953 18.6974 10.1703 18.5819 10.4517L16.4481 15.6154L10.9141 16.0626C10.6114 16.0882 10.323 16.2025 10.0851 16.3913C9.84714 16.5801 9.67019 16.8348 9.5764 17.1237C9.4826 17.4126 9.47615 17.7227 9.55784 18.0153C9.63953 18.3078 9.80573 18.5697 10.0356 18.7682L14.2544 22.4086L12.9691 27.8517C12.8972 28.1474 12.9148 28.4578 13.0196 28.7435C13.1245 29.0292 13.3118 29.2773 13.558 29.4563C13.8041 29.6353 14.0978 29.7371 14.4019 29.7489C14.706 29.7606 15.0067 29.6818 15.2659 29.5223L20.0003 26.6086L24.7375 29.5223C24.9968 29.6799 25.2969 29.7572 25.6001 29.7446C25.9032 29.732 26.1958 29.6299 26.4411 29.4513C26.6864 29.2727 26.8733 29.0255 26.9784 28.7408C27.0835 28.4562 27.102 28.1468 27.0316 27.8517L25.7416 22.4076L29.9603 18.7673C30.1921 18.5691 30.3598 18.3066 30.4422 18.0131C30.5247 17.7195 30.5181 17.4081 30.4234 17.1182ZM28.9853 17.6311L24.4197 21.5686C24.3156 21.6583 24.2381 21.7749 24.1958 21.9057C24.1535 22.0365 24.1479 22.1764 24.1797 22.3101L25.5747 28.1976C25.5783 28.2057 25.5787 28.2149 25.5757 28.2233C25.5727 28.2317 25.5667 28.2386 25.5587 28.2426C25.5419 28.2557 25.5372 28.2529 25.5231 28.2426L20.3931 25.0879C20.275 25.0153 20.139 24.9768 20.0003 24.9768C19.8616 24.9768 19.7256 25.0153 19.6075 25.0879L14.4775 28.2445C14.4634 28.2529 14.4597 28.2557 14.4419 28.2445C14.434 28.2405 14.4279 28.2335 14.4249 28.2252C14.422 28.2168 14.4223 28.2076 14.4259 28.1995L15.8209 22.312C15.8527 22.1783 15.8472 22.0384 15.8048 21.9076C15.7625 21.7768 15.6851 21.6602 15.5809 21.5704L11.0153 17.6329C11.0041 17.6236 10.9937 17.6151 11.0031 17.5861C11.0125 17.557 11.02 17.5607 11.0341 17.5589L17.0266 17.0751C17.164 17.0633 17.2955 17.0139 17.4067 16.9321C17.5178 16.8504 17.6043 16.7397 17.6566 16.612L19.9647 11.0236C19.9722 11.0076 19.975 11.0001 19.9975 11.0001C20.02 11.0001 20.0228 11.0076 20.0303 11.0236L22.3441 16.612C22.3968 16.7397 22.4838 16.8504 22.5955 16.9318C22.7072 17.0132 22.8391 17.0621 22.9769 17.0732L28.9694 17.557C28.9834 17.557 28.9919 17.557 29.0003 17.5842C29.0087 17.6114 29.0003 17.6217 28.9853 17.6311Z" fill="black"/>
<path d="M69.9646 18.7671L65.7459 22.4074L67.0312 27.8515C67.1021 28.147 67.0838 28.4569 66.9787 28.7421C66.8736 29.0272 66.6863 29.2748 66.4405 29.4536C66.1947 29.6324 65.9015 29.7343 65.5978 29.7465C65.2941 29.7587 64.9936 29.6806 64.7343 29.5221L59.9999 26.6083L55.2628 29.5221C55.0035 29.6797 54.7034 29.757 54.4002 29.7444C54.097 29.7318 53.8044 29.6297 53.5591 29.4511C53.3139 29.2725 53.1269 29.0253 53.0219 28.7406C52.9168 28.456 52.8983 28.1466 52.9687 27.8515L54.2587 22.4074L50.0399 18.7671C49.8105 18.5688 49.6446 18.3074 49.5629 18.0154C49.4812 17.7234 49.4874 17.4138 49.5806 17.1252C49.6738 16.8367 49.8499 16.582 50.087 16.393C50.3241 16.204 50.6116 16.089 50.9137 16.0624L56.4449 15.6162L58.5787 10.4524C58.6942 10.171 58.8908 9.93027 59.1434 9.76085C59.3961 9.59143 59.6934 9.50098 59.9976 9.50098C60.3018 9.50098 60.5991 9.59143 60.8518 9.76085C61.1044 9.93027 61.301 10.171 61.4165 10.4524L63.5493 15.6162L69.0806 16.0624C69.3832 16.088 69.6716 16.2023 69.9095 16.3911C70.1475 16.5799 70.3244 16.8346 70.4182 17.1235C70.512 17.4124 70.5185 17.7225 70.4368 18.0151C70.3551 18.3076 70.1889 18.5695 69.959 18.768L69.9646 18.7671Z" fill="black"/>
</svg>
