<svg width="24" height="24" viewBox="0 0 24 24" fill="none" xmlns="http://www.w3.org/2000/svg">
<path d="M22.4234 9.11824C22.3297 8.82998 22.1527 8.57592 21.9148 8.38807C21.6769 8.20022 21.3887 8.08698 21.0866 8.06261L15.5553 7.61636L13.4197 2.45168C13.3042 2.17026 13.1076 1.92953 12.855 1.76012C12.6023 1.5907 12.305 1.50024 12.0008 1.50024C11.6966 1.50024 11.3992 1.5907 11.1466 1.76012C10.8939 1.92953 10.6974 2.17026 10.5819 2.45168L8.44812 7.61543L2.91406 8.06261C2.61141 8.08821 2.32305 8.20255 2.0851 8.39131C1.84714 8.58006 1.67019 8.83485 1.5764 9.12373C1.4826 9.41261 1.47615 9.72275 1.55784 10.0153C1.63953 10.3078 1.80573 10.5697 2.03562 10.7682L6.25437 14.4086L4.96906 19.8517C4.89814 20.1472 4.9164 20.4571 5.02154 20.7423C5.12667 21.0274 5.31396 21.2751 5.55974 21.4538C5.80553 21.6326 6.09878 21.7345 6.40246 21.7467C6.70613 21.7589 7.00661 21.6808 7.26593 21.5223L12.0003 18.6086L16.7375 21.5223C16.9968 21.6799 17.2969 21.7572 17.6001 21.7446C17.9032 21.732 18.1958 21.6299 18.4411 21.4513C18.6864 21.2727 18.8733 21.0255 18.9784 20.7408C19.0835 20.4562 19.102 20.1468 19.0316 19.8517L17.7416 14.4076L21.9603 10.7673C22.1921 10.5691 22.3598 10.3066 22.4422 10.0131C22.5247 9.71951 22.5181 9.40808 22.4234 9.11824ZM20.9853 9.63105L16.4197 13.5686C16.3156 13.6583 16.2381 13.7749 16.1958 13.9057C16.1535 14.0365 16.1479 14.1764 16.1797 14.3101L17.5747 20.1976C17.5783 20.2057 17.5787 20.2149 17.5757 20.2233C17.5727 20.2317 17.5667 20.2386 17.5587 20.2426C17.5419 20.2557 17.5372 20.2529 17.5231 20.2426L12.3931 17.0879C12.2748 17.0158 12.1389 16.9778 12.0003 16.9782V3.00011C12.0228 3.00011 12.0256 3.00761 12.0331 3.02449L14.3441 8.61199C14.3968 8.73971 14.4838 8.85037 14.5955 8.93176C14.7072 9.01315 14.8391 9.06211 14.9769 9.07324L20.9684 9.55699C20.9834 9.55699 20.9919 9.55699 21.0003 9.58418C21.0087 9.61136 21.0003 9.62168 20.9853 9.63105Z" fill="black"/>
</svg>
