<svg width="27" height="27" viewBox="0 0 27 27" fill="none" xmlns="http://www.w3.org/2000/svg">
<path d="M19.7838 15.2761L16.4088 13.5886C16.276 13.5224 16.128 13.4924 15.9799 13.5017C15.8317 13.5109 15.6887 13.5591 15.5651 13.6413L14.0158 14.6749C13.3045 14.2839 12.7192 13.6986 12.3283 12.9874L13.3618 11.4381C13.4441 11.3145 13.4923 11.1714 13.5015 11.0233C13.5108 10.8751 13.4808 10.7272 13.4146 10.5943L11.7271 7.21934C11.6571 7.07808 11.549 6.95925 11.415 6.87629C11.281 6.79334 11.1264 6.74959 10.9688 6.75C9.84988 6.75 8.77683 7.19447 7.98566 7.98564C7.19449 8.77681 6.75001 9.84987 6.75001 10.9688C6.75281 13.4294 7.73154 15.7885 9.47151 17.5285C11.2115 19.2685 13.5706 20.2472 16.0313 20.25C16.5853 20.25 17.1339 20.1409 17.6457 19.9289C18.1576 19.7169 18.6226 19.4061 19.0144 19.0144C19.4061 18.6226 19.7169 18.1575 19.9289 17.6457C20.1409 17.1339 20.25 16.5853 20.25 16.0312C20.2501 15.8745 20.2066 15.7208 20.1242 15.5874C20.0419 15.454 19.924 15.3462 19.7838 15.2761ZM16.0313 18.5625C14.018 18.5603 12.0878 17.7595 10.6641 16.3359C9.24052 14.9123 8.43975 12.9821 8.43751 10.9688C8.43735 10.3835 8.63998 9.81632 9.01091 9.36367C9.38184 8.91101 9.89816 8.60087 10.472 8.48602L11.6828 10.9118L10.6524 12.4453C10.5754 12.5608 10.528 12.6935 10.5146 12.8317C10.5012 12.9699 10.5221 13.1092 10.5754 13.2374C11.1791 14.6722 12.3205 15.8136 13.7552 16.4173C13.8838 16.4729 14.0242 16.4957 14.1638 16.4836C14.3034 16.4714 14.4377 16.4247 14.5547 16.3477L16.0956 15.3204L18.5214 16.5312C18.4056 17.1057 18.0941 17.6222 17.64 17.9927C17.1859 18.3631 16.6173 18.5645 16.0313 18.5625ZM13.5 2.53125C11.6063 2.53084 9.74471 3.02072 8.09648 3.95321C6.44825 4.8857 5.06952 6.22904 4.09449 7.85246C3.11946 9.47589 2.58134 11.3241 2.53252 13.2172C2.48369 15.1103 2.92582 16.9838 3.81587 18.6553L2.6188 22.2465C2.51965 22.5439 2.50526 22.8629 2.57725 23.168C2.64924 23.473 2.80476 23.752 3.02639 23.9736C3.24802 24.1953 3.52699 24.3508 3.83204 24.4228C4.13709 24.4948 4.45616 24.4804 4.75349 24.3812L8.3447 23.1841C9.81575 23.9666 11.4457 24.4036 13.1109 24.462C14.776 24.5204 16.4326 24.1987 17.9549 23.5214C19.4771 22.844 20.8251 21.8287 21.8964 20.5526C22.9677 19.2765 23.7342 17.7731 24.1377 16.1565C24.5412 14.5399 24.5712 12.8526 24.2253 11.2228C23.8794 9.59288 23.1667 8.06323 22.1413 6.74991C21.116 5.43659 19.8049 4.37413 18.3076 3.64316C16.8103 2.91219 15.1662 2.53193 13.5 2.53125ZM13.5 22.7812C11.8684 22.7824 10.2654 22.3527 8.85306 21.5357C8.74965 21.4757 8.63469 21.4384 8.51577 21.4262C8.39686 21.414 8.27671 21.4272 8.1633 21.465L4.21876 22.7812L5.53396 18.8367C5.57187 18.7234 5.58527 18.6033 5.57327 18.4844C5.56127 18.3654 5.52414 18.2504 5.46435 18.147C4.44127 16.3781 4.03051 14.3212 4.29579 12.2951C4.56106 10.269 5.48755 8.3871 6.93151 6.94131C8.37548 5.49552 10.2562 4.56666 12.2819 4.29882C14.3077 4.03099 16.3652 4.43915 18.1353 5.46C19.9054 6.48084 21.2891 8.05729 22.0718 9.94481C22.8545 11.8323 22.9925 13.9254 22.4643 15.8993C21.936 17.8732 20.7712 19.6176 19.1503 20.8619C17.5295 22.1063 15.5434 22.7809 13.5 22.7812Z" fill="#008ABD"/>
</svg>
