<svg width="48" height="47" viewBox="0 0 48 47" fill="none" xmlns="http://www.w3.org/2000/svg">
<path fill-rule="evenodd" clip-rule="evenodd" d="M19.4533 23.4556L19.2781 23.5633C18.153 25.0856 17.2242 26.1385 16.5158 28.0215C15.9716 29.4675 15.7282 31.2712 17.0051 31.9624C18.1456 32.58 19.6761 31.7891 21.2112 32.9747C23.6135 34.8301 21.0874 39.6832 17.9292 38.2135C16.2152 37.4164 16.3054 35.8893 15.0488 35.1558C13.7563 34.4012 12.3578 35.2281 11.3912 36.4494C10.8501 37.1334 10.4617 37.8775 10.1596 38.6358L24.4288 46.8738L33.1059 31.844C32.3662 31.5977 31.657 31.2472 30.9395 30.5799C29.9258 29.638 29.3624 28.1373 30.4263 26.7092C30.89 26.0874 31.5388 25.7896 32.0993 25.3171C32.6862 24.8225 33.2863 24.0856 33.586 23.2345C34.7461 19.9385 30.2889 17.882 28.4663 20.981C27.4617 22.689 27.9524 24.3273 27.1935 25.4239C26.3543 26.6368 24.7025 26.4844 23.4057 26.0301C21.8392 25.4816 20.6535 24.5315 19.4533 23.4556Z" fill="#FFF212"/>
<path fill-rule="evenodd" clip-rule="evenodd" d="M19.2781 23.563C19.3646 23.2437 19.4519 23.4456 19.1163 23.1104C18.3138 22.3107 16.5831 21.2329 15.5514 20.8535C14.209 20.3596 12.5518 20.2263 11.7105 21.3521C10.9089 22.4251 11.356 24.1348 10.4324 25.7764C8.589 29.0534 4.0702 26.8846 5.33087 23.5247C6.12046 21.4208 7.64472 21.3596 8.50849 20.0914C9.49844 18.6374 8.92519 17.173 7.87742 16.2269C7.18921 15.6051 6.49532 15.2588 5.78031 15.0161L1.3774 22.6427C-1.22367 27.1479 -0.0308442 32.7518 4.02809 35.0953L10.1596 38.6355C10.4617 37.8772 10.8501 37.1331 11.3912 36.4491C12.3578 35.2278 13.7563 34.4008 15.0488 35.1554C16.3054 35.8889 16.2152 37.4161 17.9291 38.2132C21.0873 39.6828 23.6134 34.8298 21.2112 32.9744C19.6761 31.7888 18.1456 32.5797 17.005 31.9621C15.7281 31.2709 15.9715 29.4672 16.5157 28.0212C17.2242 26.1382 18.153 25.0853 19.2781 23.563Z" fill="#00AFEF"/>
<path fill-rule="evenodd" clip-rule="evenodd" d="M5.78034 15.0164C6.49535 15.2591 7.18924 15.6053 7.87746 16.2272C8.92522 17.1733 9.49847 18.6376 8.50852 20.0917C7.64475 21.3599 6.12049 21.4211 5.3309 23.525C4.07023 26.8849 8.58903 29.0537 10.4325 25.7767C11.356 24.135 10.909 22.4253 11.7106 21.3524C12.5519 20.2266 14.2091 20.3599 15.5514 20.8538C16.5831 21.2332 18.3138 22.311 19.1163 23.1106C19.452 23.4459 19.3646 23.244 19.2781 23.5632L19.4533 23.4555C20.6188 21.8043 21.5698 20.9147 22.3474 18.8252C22.881 17.3919 23.1325 15.5935 21.8433 14.9042C20.7117 14.2991 19.1718 15.086 17.6335 13.8933C16.5229 13.0325 16.397 11.4135 17.2561 9.9378C18.0914 8.50343 19.6595 8.0693 20.9122 8.64889C22.6481 9.45128 22.5805 10.9927 23.796 11.7147C25.0828 12.4788 26.5101 11.6346 27.4713 10.4117C28.0421 9.68556 28.4124 8.96092 28.6979 8.22558L14.4502 0L5.78034 15.0164Z" fill="#373435"/>
<path fill-rule="evenodd" clip-rule="evenodd" d="M28.6979 8.22559C28.4124 8.96092 28.0421 9.68557 27.4712 10.4117C26.5101 11.6346 25.0828 12.4788 23.796 11.7147C22.5805 10.9927 22.6481 9.45128 20.9122 8.64889C19.6595 8.06931 18.0914 8.50343 17.2561 9.93781C16.397 11.4135 16.5229 13.0325 17.6335 13.8933C19.1717 15.086 20.7117 14.2991 21.8433 14.9042C23.1325 15.5935 22.881 17.3919 22.3474 18.8252C21.5698 20.9147 20.6188 21.8043 19.4533 23.4555C20.6535 24.5314 21.8392 25.4815 23.4057 26.0301C24.7025 26.4844 26.3543 26.6367 27.1935 25.4238C27.9524 24.3272 27.4617 22.6889 28.4663 20.9809C30.2889 17.882 34.7461 19.9384 33.586 23.2345C33.2864 24.0855 32.6862 24.8225 32.0993 25.3171C31.5388 25.7896 30.89 26.0874 30.4263 26.7092C29.3624 28.1372 29.9258 29.638 30.9395 30.5799C31.657 31.2471 32.3662 31.5977 33.1059 31.844L38.4152 22.648C40.5137 19.0132 39.5514 14.492 36.2765 12.6012L28.6979 8.22559Z" fill="#EC268F"/>
<path fill-rule="evenodd" clip-rule="evenodd" d="M28.4316 41.3038C33.1516 34.5754 38.9938 27.4242 44.139 21.7968C45.5449 20.2594 46.5127 20.1429 44.6613 19.3169C44.3014 19.1567 43.9183 18.992 43.5254 18.8148C41.4572 17.8816 41.9188 17.549 40.8616 19.3456C37.3324 25.3415 30.8948 36.1655 28.4316 41.3038Z" fill="#96989A"/>
<path fill-rule="evenodd" clip-rule="evenodd" d="M26.2351 45.677C32.0716 39.4275 40.2037 30.9909 46.8632 26.764C48.0756 25.9952 48.5267 26.1582 47.1669 25.3543C46.4421 24.9267 45.5896 24.4985 44.8446 24.0703C43.2932 23.1787 43.9112 23.124 42.6505 24.5807C36.7706 31.3723 31.4673 37.7695 26.2351 45.677Z" fill="#606062"/>
</svg>
