<svg width="547" height="219" viewBox="0 0 547 219" fill="none" xmlns="http://www.w3.org/2000/svg">
<g clip-path="url(#clip0_6168_276)">
<path fill-rule="evenodd" clip-rule="evenodd" d="M94.7847 109.566L94.0588 110.012C89.3962 116.327 85.547 120.694 82.6112 128.505C80.356 134.503 79.3473 141.984 84.639 144.852C89.3656 147.413 95.7081 144.133 102.07 149.05C112.025 156.747 101.557 176.876 88.4685 170.781C81.3657 167.474 81.7393 161.14 76.5319 158.097C71.1757 154.967 65.3802 158.397 61.3745 163.463C59.1318 166.3 57.5225 169.387 56.2704 172.532L115.404 206.703L151.363 144.36C148.298 143.339 145.359 141.885 142.385 139.117C138.184 135.21 135.85 128.985 140.258 123.062C142.18 120.482 144.869 119.247 147.192 117.287C149.624 115.236 152.111 112.179 153.353 108.649C158.16 94.977 139.689 86.447 132.136 99.3012C127.973 106.386 130.006 113.181 126.861 117.73C123.384 122.761 116.538 122.129 111.164 120.245C104.672 117.969 99.7586 114.028 94.7847 109.566Z" fill="#FFF212"/>
<path fill-rule="evenodd" clip-rule="evenodd" d="M94.0588 110.012C94.4171 108.688 94.7792 109.526 93.3882 108.135C90.0625 104.818 82.8902 100.347 78.6148 98.7737C73.0518 96.725 66.1843 96.172 62.6977 100.842C59.3758 105.292 61.2285 112.384 57.4011 119.193C49.7617 132.786 31.0351 123.79 36.2595 109.853C39.5317 101.127 45.8485 100.873 49.428 95.6125C53.5305 89.5812 51.1549 83.5072 46.8128 79.5828C43.9608 77.0035 41.0852 75.5674 38.1221 74.5605L19.8758 106.195C9.09662 124.882 14.0399 148.127 30.8607 157.847L56.2704 172.532C57.5225 169.386 59.1318 166.3 61.3745 163.463C65.3802 158.397 71.1756 154.967 76.5319 158.097C81.7393 161.139 81.3657 167.474 88.4685 170.78C101.557 176.876 112.025 156.746 102.07 149.05C95.708 144.132 89.3656 147.413 84.639 144.851C79.3473 141.984 80.3559 134.503 82.6112 128.505C85.547 120.694 89.3962 116.327 94.0588 110.012Z" fill="#00AFEF"/>
<path fill-rule="evenodd" clip-rule="evenodd" d="M38.1221 74.5608C41.0852 75.5677 43.9607 77.0037 46.8128 79.583C51.1549 83.5075 53.5305 89.5815 49.428 95.6127C45.8484 100.873 39.5317 101.127 36.2595 109.854C31.0351 123.79 49.7617 132.786 57.4011 119.194C61.2284 112.384 59.3758 105.293 62.6977 100.842C66.1843 96.1723 73.0518 96.7253 78.6148 98.774C82.8902 100.348 90.0625 104.818 93.3882 108.135C94.7792 109.526 94.4171 108.688 94.0588 110.013L94.7847 109.566C99.6147 102.717 103.556 99.0264 106.778 90.3595C108.99 84.4142 110.032 76.9545 104.689 74.0954C99.9998 71.5857 93.618 74.8493 87.2432 69.9021C82.6408 66.3319 82.1189 59.6163 85.6793 53.4952C89.1408 47.5455 95.6391 45.7448 100.831 48.1489C108.024 51.4771 107.744 57.8708 112.782 60.8656C118.114 64.0351 124.029 60.5333 128.012 55.4607C130.378 52.4489 131.912 49.4432 133.095 46.393L74.0512 12.2739L38.1221 74.5608Z" fill="#373435"/>
<path fill-rule="evenodd" clip-rule="evenodd" d="M133.095 46.3931C131.912 49.4432 130.378 52.449 128.012 55.4608C124.029 60.5333 118.114 64.0352 112.782 60.8657C107.744 57.8709 108.024 51.4772 100.831 48.1489C95.6391 45.7448 89.1408 47.5456 85.6794 53.4952C82.1189 59.6163 82.6408 66.3319 87.2432 69.9022C93.618 74.8494 99.9998 71.5857 104.689 74.0955C110.032 76.9545 108.99 84.4142 106.778 90.3595C103.556 99.0264 99.6147 102.717 94.7847 109.566C99.7586 114.028 104.672 117.969 111.164 120.245C116.538 122.129 123.384 122.761 126.861 117.73C130.006 113.182 127.973 106.386 132.136 99.3013C139.689 86.4471 158.16 94.9771 153.353 108.649C152.111 112.179 149.624 115.236 147.192 117.287C144.869 119.247 142.18 120.482 140.258 123.062C135.85 128.985 138.184 135.21 142.385 139.117C145.359 141.885 148.298 143.339 151.363 144.361L173.366 106.216C182.062 91.1391 178.074 72.3856 164.503 64.5427L133.095 46.3931Z" fill="#EC268F"/>
<path fill-rule="evenodd" clip-rule="evenodd" d="M131.992 183.597C151.552 155.689 175.763 126.026 197.086 102.684C202.912 96.3069 206.922 95.824 199.25 92.3977C197.759 91.733 196.171 91.0498 194.543 90.315C185.972 86.4442 187.885 85.0645 183.504 92.5165C168.878 117.387 142.2 162.284 131.992 183.597Z" fill="#96989A"/>
<path fill-rule="evenodd" clip-rule="evenodd" d="M122.89 201.74C147.077 175.817 180.777 140.823 208.375 123.29C213.399 120.101 215.269 120.777 209.634 117.443C206.63 115.669 203.097 113.893 200.01 112.117C193.581 108.418 196.142 108.192 190.917 114.234C166.55 142.405 144.573 168.94 122.89 201.74Z" fill="#606062"/>
<path d="M295.465 53.3567C298.588 56.2919 301.347 59.6092 303.741 63.3064C306.136 67.0032 308.14 70.8915 309.753 74.9682C311.367 79.0471 312.591 83.288 313.424 87.6921C314.258 92.0962 314.673 96.4729 314.673 100.823C314.673 106.043 314.047 111.235 312.799 116.4C311.55 121.566 309.753 126.459 307.411 131.081C305.07 135.702 302.153 139.944 298.667 143.802C295.18 147.664 291.198 150.898 286.719 153.509C281.097 156.772 274.825 158.919 267.902 159.953C260.978 160.985 254.29 161.501 247.834 161.501H220.816V140.297H242.523H247.208C252.414 140.297 257.257 139.998 261.732 139.399C266.208 138.802 270.842 137.143 275.631 134.425C278.442 132.793 280.968 130.755 283.205 128.307C285.444 125.859 287.292 123.17 288.75 120.234C290.208 117.297 291.326 114.171 292.107 110.854C292.888 107.537 293.278 104.193 293.278 100.823C293.278 95.1682 292.186 89.6762 289.998 84.348C287.813 79.0191 284.688 74.4519 280.63 70.6468C277.922 68.1442 275.06 66.2148 272.041 64.8559C269.021 63.4953 265.897 62.4901 262.669 61.8375C259.443 61.1843 256.136 60.777 252.753 60.6149C249.371 60.4518 245.96 60.3697 242.523 60.3697H220.816V39.1655H247.366C251.425 39.1655 255.617 39.3544 259.938 39.736C264.257 40.116 268.527 40.8507 272.744 41.937C276.96 43.0259 280.993 44.4664 284.846 46.2611C288.697 48.0553 292.236 50.4199 295.465 53.3567ZM374.118 161.501C369.122 161.501 364.437 160.605 360.064 158.811C355.691 157.017 351.865 154.487 348.586 151.226C345.307 147.963 342.677 144.13 340.699 139.726C338.722 135.322 337.627 130.51 337.421 125.29H359.282C359.803 129.857 361.312 133.636 363.812 136.627C366.31 139.617 369.746 141.112 374.118 141.112C376.201 141.112 378.179 140.759 380.052 140.051C381.927 139.345 383.594 138.339 385.05 137.034C386.509 135.729 387.679 134.18 388.563 132.386C389.45 130.591 389.892 128.607 389.892 126.432C389.892 123.061 389.241 120.315 387.938 118.194C386.638 116.073 384.946 114.335 382.864 112.975C380.782 111.615 378.464 110.447 375.915 109.467C373.364 108.489 370.839 107.509 368.341 106.532C366.57 105.88 364.853 105.172 363.187 104.412C361.521 103.65 359.803 102.834 358.033 101.965C352.307 98.9197 348.116 95.0045 345.462 90.2204C342.807 85.4358 341.48 79.617 341.48 72.7672C341.48 67.8726 342.339 63.3875 344.057 59.3097C345.774 55.2319 348.116 51.6978 351.083 48.7079C354.051 45.7175 357.566 43.3774 361.625 41.6933C365.686 40.0076 370.006 39.1655 374.587 39.1655C379.168 39.1655 383.436 40.0076 387.392 41.6933C391.349 43.3774 394.81 45.7443 397.777 48.7889C400.744 51.8336 403.113 55.3956 404.884 59.4729C406.653 63.5512 407.642 67.9821 407.851 72.7672H386.611C386.3 68.7437 385.103 65.5359 383.019 63.1433C380.938 60.7507 377.919 59.5544 373.963 59.5544C370.736 59.5544 368.002 60.6691 365.765 62.8986C363.525 65.128 362.407 67.9821 362.407 71.462C362.407 74.2893 362.979 76.6003 364.124 78.395C365.269 80.1892 366.753 81.657 368.574 82.7985C370.398 83.9401 372.401 84.8916 374.587 85.6532C376.773 86.4142 378.908 87.1758 380.989 87.9368C385.258 89.3505 389.189 91.0636 392.78 93.0746C396.373 95.0866 399.494 97.5066 402.15 100.334C404.805 103.161 406.861 106.504 408.319 110.365C409.777 114.224 410.505 118.764 410.505 123.985C410.505 129.531 409.595 134.614 407.773 139.236C405.951 143.858 403.426 147.8 400.198 151.062C396.971 154.325 393.119 156.88 388.642 158.729C384.166 160.577 379.324 161.501 374.118 161.501ZM511.179 161.501H484.942L442.778 97.7234H453.709H467.609C470.418 97.7234 473.1 97.3434 475.651 96.5819C478.202 95.8208 480.414 94.6787 482.287 93.1561C484.163 91.633 485.645 89.7025 486.739 87.3658C487.833 85.0274 488.379 82.2275 488.379 78.9649C488.379 75.8119 487.807 73.0645 486.66 70.7267C485.516 68.3905 483.98 66.459 482.053 64.9358C480.128 63.4154 477.916 62.2733 475.416 61.5117C472.918 60.7507 470.316 60.3697 467.609 60.3697H453.709H432.002V39.3281H467.764C472.971 39.3281 477.993 39.8444 482.835 40.8776C487.676 41.9107 492.178 44.1127 496.343 47.4831C500.715 51.0731 504.099 55.4498 506.494 60.6149C508.889 65.78 510.085 71.2988 510.085 77.1702C510.085 82.3907 509.122 87.6653 507.196 92.9935C505.271 98.3213 502.485 102.781 498.841 106.367C495.823 109.414 492.829 111.615 489.862 112.975C486.894 114.335 483.434 115.502 479.478 116.482L511.179 161.501ZM316.43 161.501V141.447H335.63V161.501H316.43ZM410.545 161.501V141.447H429.745V161.501H410.545ZM513.872 161.501V141.447H533.072V161.501H513.872Z" fill="#FCFCFD"/>
<path d="M421.886 179.224L420.445 182.093C418.694 180.799 416.979 180.151 415.3 180.151C412.636 180.151 410.536 181.089 408.994 182.972C407.456 184.849 406.685 187.338 406.685 190.438C406.685 193.382 407.438 195.753 408.951 197.553C410.458 199.352 412.511 200.249 415.116 200.249C416.967 200.249 418.463 199.689 419.608 198.58V192.623H416.083V189.666H423.097V200.76C422.17 201.55 420.878 202.179 419.223 202.66C417.561 203.141 415.954 203.385 414.386 203.385C410.873 203.385 408.102 202.189 406.067 199.809C404.032 197.422 403.017 194.251 403.017 190.295C403.017 186.352 404.134 183.151 406.365 180.697C408.595 178.245 411.61 177.015 415.402 177.015C418.053 177.015 420.219 177.752 421.886 179.224ZM442.08 187.492C441.362 186.992 440.638 186.743 439.901 186.743C438.733 186.743 437.707 187.284 436.834 188.359C435.956 189.44 435.518 190.733 435.518 192.255V202.958H432.207V184.32H435.518V187.277C436.722 185.069 438.519 183.964 440.899 183.964C441.485 183.964 442.341 184.071 443.457 184.279L442.08 187.492ZM460.189 200.818C458.873 202.481 456.851 203.312 454.133 203.312C452.673 203.312 451.409 202.779 450.341 201.716C449.266 200.653 448.732 199.334 448.732 197.749C448.732 195.854 449.557 194.256 451.207 192.944C452.855 191.637 454.958 190.984 457.514 190.984C458.208 190.984 458.998 191.137 459.876 191.447C459.876 188.428 458.535 186.922 455.848 186.922C453.781 186.922 452.198 187.48 451.082 188.597L449.693 185.817C450.322 185.306 451.189 184.872 452.293 184.509C453.403 184.148 454.459 183.964 455.467 183.964C458.168 183.964 460.13 184.581 461.353 185.81C462.575 187.041 463.186 188.995 463.186 191.679V198.365C463.186 200 463.673 201.093 464.647 201.639V203.278C463.301 203.278 462.291 203.087 461.626 202.707C460.956 202.327 460.481 201.698 460.189 200.818ZM459.876 193.799C458.838 193.561 458.108 193.441 457.692 193.441C456.031 193.441 454.671 193.876 453.622 194.737C452.572 195.597 452.042 196.62 452.042 197.796C452.042 199.738 453.183 200.712 455.455 200.712C457.123 200.712 458.595 199.917 459.876 198.325V193.799ZM460.623 174.806L456.672 180.614H454.251L457.205 174.806H460.623ZM484.615 202.958V187.1H476.888V202.958H473.578V187.1H470.872V184.32H473.578C473.578 181.945 474.165 180.08 475.334 178.726C476.51 177.372 478.057 176.694 479.986 176.694C480.947 176.694 481.98 176.866 483.083 177.217L482.158 179.645C481.482 179.414 480.852 179.296 480.272 179.296C479.262 179.296 478.426 179.676 477.767 180.442C477.109 181.207 476.782 182.177 476.782 183.346C476.782 183.661 476.818 183.982 476.888 184.32H487.961V202.958H484.615ZM485.908 177.264C486.472 177.264 486.959 177.466 487.362 177.863C487.759 178.267 487.961 178.749 487.961 179.302C487.961 179.872 487.759 180.359 487.362 180.763C486.959 181.161 486.472 181.362 485.908 181.362C485.35 181.362 484.87 181.161 484.466 180.763C484.068 180.359 483.867 179.872 483.867 179.302C483.867 178.737 484.062 178.25 484.46 177.858C484.853 177.461 485.339 177.264 485.908 177.264ZM511.003 185.817L509.353 188.133C509.015 187.799 508.416 187.486 507.555 187.19C506.694 186.892 505.853 186.743 505.022 186.743C503.212 186.743 501.769 187.372 500.707 188.637C499.646 189.895 499.111 191.624 499.111 193.823C499.111 196.008 499.652 197.672 500.726 198.818C501.805 199.964 503.3 200.534 505.212 200.534C506.694 200.534 508.189 199.964 509.697 198.823L511.003 201.603C509.227 202.742 507.033 203.312 504.411 203.312C501.87 203.312 499.77 202.459 498.109 200.752C496.453 199.049 495.622 196.733 495.622 193.823C495.622 190.848 496.488 188.466 498.221 186.667C499.961 184.867 502.334 183.964 505.341 183.964C506.315 183.964 507.365 184.166 508.499 184.57C509.632 184.974 510.463 185.39 511.003 185.817ZM528.858 200.818C527.54 202.481 525.517 203.312 522.799 203.312C521.34 203.312 520.076 202.779 519.007 201.716C517.934 200.653 517.4 199.334 517.4 197.749C517.4 195.854 518.225 194.256 519.874 192.944C521.523 191.637 523.624 190.984 526.182 190.984C526.876 190.984 527.665 191.137 528.543 191.447C528.543 188.428 527.202 186.922 524.514 186.922C522.45 186.922 520.865 187.48 519.75 188.597L518.362 185.817C518.99 185.306 519.857 184.872 520.96 184.509C522.069 184.148 523.126 183.964 524.134 183.964C526.834 183.964 528.799 184.581 530.021 185.81C531.243 187.041 531.855 188.995 531.855 191.679V198.365C531.855 200 532.341 201.093 533.314 201.639V203.278C531.967 203.278 530.958 203.087 530.294 202.707C529.623 202.327 529.148 201.698 528.858 200.818ZM528.543 193.799C527.504 193.561 526.774 193.441 526.361 193.441C524.698 193.441 523.339 193.876 522.29 194.737C521.239 195.597 520.711 196.62 520.711 197.796C520.711 199.738 521.85 200.712 524.123 200.712C525.79 200.712 527.261 199.917 528.543 198.325V193.799Z" fill="#FCFCFD"/>
</g>
<defs>
<clipPath id="clip0_6168_276">
<rect width="547" height="219" fill="white"/>
</clipPath>
</defs>
</svg>
