<svg width="128" height="52" viewBox="0 0 128 52" fill="none" xmlns="http://www.w3.org/2000/svg">
<g clip-path="url(#clip0_4404_1509)">
<path fill-rule="evenodd" clip-rule="evenodd" d="M22.1795 25.6154L22.0096 25.7198C20.9185 27.1961 20.0178 28.2171 19.3308 30.0432C18.8031 31.4454 18.5671 33.1945 19.8053 33.8649C20.9114 34.4638 22.3955 33.6968 23.8842 34.8465C26.2138 36.6458 23.7641 41.352 20.7015 39.9268C19.0394 39.1538 19.1268 37.6729 17.9082 36.9616C16.6549 36.2298 15.2987 37.0317 14.3614 38.2161C13.8366 38.8794 13.46 39.6009 13.167 40.3363L27.0044 48.325L35.419 33.75C34.7017 33.5112 34.014 33.1712 33.3182 32.5242C32.3351 31.6108 31.7888 30.1554 32.8205 28.7706C33.2702 28.1676 33.8993 27.8788 34.4429 27.4206C35.012 26.941 35.594 26.2263 35.8846 25.401C37.0096 22.2047 32.6872 20.2105 30.9198 23.2156C29.9456 24.872 30.4214 26.4607 29.6855 27.5241C28.8717 28.7003 27.2699 28.5526 26.0123 28.112C24.4932 27.5801 23.3434 26.6587 22.1795 25.6154Z" fill="#FFF212"/>
<path fill-rule="evenodd" clip-rule="evenodd" d="M22.0103 25.7198C22.0941 25.4101 22.1788 25.606 21.8533 25.2809C21.0751 24.5054 19.3967 23.4602 18.3963 23.0923C17.0945 22.6133 15.4875 22.4841 14.6716 23.5758C13.8943 24.6163 14.3278 26.2743 13.4322 27.8662C11.6446 31.0441 7.26248 28.9409 8.48501 25.6827C9.2507 23.6425 10.7288 23.5831 11.5665 22.3532C12.5265 20.9432 11.9706 19.5232 10.9545 18.6057C10.2871 18.0027 9.61422 17.6669 8.92085 17.4315L4.65115 24.8274C2.12878 29.1963 3.28552 34.6306 7.22165 36.9031L13.1676 40.3362C13.4606 39.6009 13.8372 38.8793 14.362 38.216C15.2993 37.0316 16.6555 36.2297 17.9089 36.9615C19.1274 37.6728 19.04 39.1538 20.7021 39.9268C23.7647 41.3519 26.2144 36.6457 23.8848 34.8464C22.3962 33.6967 20.912 34.4637 19.806 33.8648C18.5677 33.1945 18.8037 31.4453 19.3315 30.0431C20.0184 28.2171 20.9192 27.196 22.0103 25.7198Z" fill="#00AFEF"/>
<path fill-rule="evenodd" clip-rule="evenodd" d="M8.92046 17.4316C9.61384 17.6669 10.2867 18.0027 10.9541 18.6057C11.9702 19.5232 12.5261 20.9432 11.5661 22.3533C10.7285 23.5831 9.25032 23.6425 8.48462 25.6827C7.2621 28.9409 11.6442 31.0441 13.4318 27.8662C14.3274 26.2743 13.8939 24.6163 14.6712 23.5758C15.4871 22.4841 17.0942 22.6134 18.3959 23.0924C19.3964 23.4602 21.0747 24.5055 21.8529 25.2809C22.1784 25.606 22.0937 25.4102 22.0099 25.7198L22.1797 25.6154C23.31 24.0141 24.2322 23.1514 24.9863 21.1251C25.5038 19.7352 25.7476 17.9912 24.4974 17.3228C23.4001 16.736 21.9067 17.499 20.415 16.3424C19.338 15.5077 19.2159 13.9377 20.049 12.5066C20.859 11.1157 22.3797 10.6947 23.5945 11.2567C25.2778 12.0348 25.2123 13.5296 26.3911 14.2298C27.6389 14.9708 29.023 14.1521 29.9551 12.9661C30.5087 12.262 30.8677 11.5593 31.1446 10.8462L17.328 2.86951L8.92046 17.4316Z" fill="#373435"/>
<path fill-rule="evenodd" clip-rule="evenodd" d="M31.1445 10.8462C30.8676 11.5593 30.5086 12.262 29.955 12.9661C29.0229 14.152 27.6388 14.9707 26.3909 14.2297C25.2122 13.5296 25.2777 12.0348 23.5944 11.2567C22.3795 10.6946 20.8589 11.1156 20.0489 12.5066C19.2158 13.9376 19.3379 15.5077 20.4149 16.3424C21.9066 17.499 23.4 16.736 24.4973 17.3227C25.7475 17.9912 25.5036 19.7352 24.9861 21.1251C24.2321 23.1513 23.3099 24.0141 22.1796 25.6153C23.3435 26.6587 24.4933 27.58 26.0124 28.112C27.27 28.5526 28.8718 28.7003 29.6857 27.5241C30.4215 26.4607 29.9458 24.8719 30.92 23.2156C32.6874 20.2104 37.0097 22.2047 35.8847 25.4009C35.5941 26.2263 35.0121 26.9409 34.443 27.4205C33.8994 27.8788 33.2703 28.1675 32.8206 28.7705C31.789 30.1554 32.3353 31.6107 33.3183 32.5241C34.0141 33.1712 34.7019 33.5112 35.4192 33.75L40.5678 24.8322C42.6028 21.3074 41.6697 16.923 38.4939 15.0894L31.1445 10.8462Z" fill="#EC268F"/>
<path fill-rule="evenodd" clip-rule="evenodd" d="M30.8867 42.9232C35.4639 36.3984 41.1293 29.4636 46.1188 24.0065C47.4822 22.5155 48.4207 22.4026 46.6253 21.6016C46.2763 21.4462 45.9048 21.2865 45.5238 21.1147C43.5181 20.2098 43.9658 19.8872 42.9406 21.6294C39.5181 27.4439 33.2753 37.9404 30.8867 42.9232Z" fill="#96989A"/>
<path fill-rule="evenodd" clip-rule="evenodd" d="M28.7568 47.1646C34.4167 41.1042 42.3028 32.9228 48.7608 28.8239C49.9365 28.0783 50.374 28.2363 49.0553 27.4568C48.3525 27.0421 47.5257 26.6269 46.8033 26.2116C45.2988 25.347 45.8981 25.294 44.6756 26.7066C38.9735 33.2927 33.8308 39.4964 28.7568 47.1646Z" fill="#606062"/>
<path d="M69.14 12.4743C69.8707 13.1605 70.5164 13.936 71.0765 14.8004C71.6369 15.6647 72.106 16.5737 72.4834 17.5268C72.861 18.4804 73.1476 19.4719 73.3424 20.5015C73.5376 21.5312 73.6346 22.5544 73.6346 23.5715C73.6346 24.7917 73.4883 26.0055 73.1962 27.2131C72.9039 28.4209 72.4834 29.5648 71.9353 30.6454C71.3876 31.7258 70.7051 32.7175 69.8892 33.6195C69.0732 34.5224 68.1414 35.2784 67.0933 35.8889C65.7779 36.6517 64.3101 37.1536 62.6901 37.3953C61.0699 37.6368 59.5048 37.7573 57.994 37.7573H51.6719V32.8H56.7514H57.8477C59.0659 32.8 60.1991 32.7301 61.2464 32.59C62.2938 32.4504 63.3781 32.0627 64.4988 31.4272C65.1565 31.0456 65.7477 30.5691 66.2712 29.9969C66.7951 29.4247 67.2275 28.7959 67.5686 28.1095C67.9098 27.4229 68.1715 26.6921 68.3542 25.9166C68.5369 25.1411 68.6283 24.3593 68.6283 23.5715C68.6283 22.2494 68.3725 20.9654 67.8607 19.7197C67.3493 18.4739 66.6182 17.4061 65.6684 16.5165C65.0349 15.9314 64.3651 15.4803 63.6586 15.1626C62.9519 14.8446 62.2209 14.6095 61.4657 14.457C60.7106 14.3043 59.9368 14.209 59.1453 14.1712C58.3537 14.133 57.5557 14.1138 56.7514 14.1138H51.6719V9.15649H57.8846C58.8345 9.15649 59.8154 9.20065 60.8264 9.28987C61.8371 9.3787 62.8363 9.55048 63.8232 9.80443C64.8097 10.059 65.7534 10.3958 66.655 10.8154C67.5562 11.2348 68.3845 11.7877 69.14 12.4743ZM87.545 37.7573C86.3759 37.7573 85.2797 37.5478 84.2563 37.1283C83.2331 36.7089 82.3377 36.1175 81.5704 35.355C80.8031 34.5923 80.1878 33.6961 79.7249 32.6665C79.2621 31.6369 79.006 30.512 78.9578 29.2915H84.0733C84.1954 30.3593 84.5484 31.2428 85.1335 31.9419C85.7179 32.641 86.5221 32.9905 87.545 32.9905C88.0325 32.9905 88.4954 32.908 88.9337 32.7424C89.3725 32.5775 89.7624 32.3423 90.1032 32.0373C90.4445 31.7321 90.7184 31.37 90.9252 30.9504C91.1327 30.5308 91.2363 30.067 91.2363 29.5585C91.2363 28.7704 91.0838 28.1284 90.7791 27.6327C90.4748 27.1368 90.0789 26.7303 89.5916 26.4124C89.1044 26.0945 88.5621 25.8213 87.9656 25.5923C87.3686 25.3637 86.7777 25.1346 86.1932 24.9061C85.7789 24.7537 85.3771 24.5882 84.9872 24.4104C84.5973 24.2323 84.1954 24.0416 83.7812 23.8384C82.4412 23.1264 81.4605 22.2111 80.8395 21.0926C80.2181 19.974 79.9076 18.6136 79.9076 17.0122C79.9076 15.8679 80.1087 14.8193 80.5107 13.866C80.9125 12.9127 81.4605 12.0864 82.1548 11.3874C82.8492 10.6883 83.6719 10.1412 84.6216 9.74747C85.5719 9.35336 86.5828 9.15649 87.6547 9.15649C88.7268 9.15649 89.7255 9.35336 90.6513 9.74747C91.5772 10.1412 92.387 10.6945 93.0814 11.4064C93.7757 12.1182 94.3299 12.9509 94.7444 13.9041C95.1583 14.8576 95.3898 15.8935 95.4388 17.0122H90.4685C90.3956 16.0716 90.1155 15.3216 89.628 14.7623C89.1411 14.2029 88.4345 13.9232 87.5087 13.9232C86.7536 13.9232 86.114 14.1838 85.5903 14.705C85.0663 15.2263 84.8045 15.8935 84.8045 16.7071C84.8045 17.3681 84.9384 17.9084 85.2065 18.328C85.4742 18.7474 85.8216 19.0906 86.2477 19.3575C86.6745 19.6243 87.1434 19.8468 87.6547 20.0248C88.1663 20.2028 88.6659 20.3808 89.1528 20.5587C90.1519 20.8892 91.0717 21.2897 91.9121 21.7599C92.7528 22.2303 93.4832 22.796 94.1046 23.457C94.726 24.118 95.2071 24.8996 95.5482 25.8021C95.8893 26.7045 96.0598 27.7658 96.0598 28.9865C96.0598 30.2832 95.8468 31.4714 95.4204 32.5521C94.9941 33.6325 94.4031 34.5541 93.6478 35.3169C92.8927 36.0796 91.9914 36.677 90.9437 37.1091C89.8963 37.5413 88.7633 37.7573 87.545 37.7573ZM119.618 37.7573H113.478L103.612 22.8467H106.17H109.422C110.08 22.8467 110.707 22.7579 111.304 22.5799C111.901 22.4019 112.419 22.1349 112.857 21.779C113.296 21.4229 113.643 20.9715 113.899 20.4252C114.155 19.8785 114.283 19.224 114.283 18.4612C114.283 17.724 114.149 17.0817 113.88 16.5352C113.612 15.989 113.253 15.5374 112.802 15.1813C112.352 14.8259 111.834 14.5589 111.249 14.3808C110.665 14.2029 110.056 14.1138 109.422 14.1138H106.17H101.09V9.19451H109.459C110.677 9.19451 111.852 9.31521 112.985 9.55675C114.118 9.79829 115.172 10.3131 116.146 11.1011C117.169 11.9404 117.961 12.9636 118.522 14.1712C119.082 15.3787 119.362 16.6689 119.362 18.0416C119.362 19.2621 119.137 20.4952 118.686 21.7409C118.235 22.9865 117.583 24.0291 116.731 24.8676C116.024 25.5798 115.324 26.0945 114.63 26.4124C113.935 26.7303 113.125 27.0033 112.2 27.2323L119.618 37.7573ZM74.0459 37.7573V33.0689H78.5387V37.7573H74.0459ZM96.0691 37.7573V33.0689H100.562V37.7573H96.0691ZM120.248 37.7573V33.0689H124.741V37.7573H120.248Z" fill="#0C111D"/>
<path d="M98.723 41.9008L98.3858 42.5716C97.9761 42.2689 97.5748 42.1175 97.1819 42.1175C96.5585 42.1175 96.067 42.3368 95.7061 42.777C95.3463 43.2158 95.1659 43.7977 95.1659 44.5224C95.1659 45.2107 95.3421 45.7651 95.6962 46.1858C96.0489 46.6064 96.5292 46.8162 97.1388 46.8162C97.5719 46.8162 97.922 46.6854 98.19 46.4259V45.0334H97.3652V44.342H99.0064V46.9356C98.7895 47.1203 98.4871 47.2674 98.0999 47.3798C97.711 47.4923 97.3348 47.5493 96.968 47.5493C96.146 47.5493 95.4975 47.2698 95.0213 46.7133C94.5452 46.1553 94.3076 45.4138 94.3076 44.489C94.3076 43.5672 94.569 42.8188 95.091 42.2452C95.6128 41.6719 96.3184 41.3844 97.2057 41.3844C97.8262 41.3844 98.3328 41.5566 98.723 41.9008ZM103.449 43.8338C103.28 43.7169 103.111 43.6587 102.939 43.6587C102.665 43.6587 102.425 43.785 102.221 44.0364C102.015 44.2891 101.913 44.5914 101.913 44.9473V47.4494H101.138V43.092H101.913V43.7835C102.195 43.2673 102.615 43.009 103.172 43.009C103.309 43.009 103.51 43.0339 103.771 43.0826L103.449 43.8338ZM107.686 46.9493C107.378 47.3379 106.905 47.5322 106.269 47.5322C105.927 47.5322 105.632 47.4077 105.382 47.1591C105.13 46.9107 105.005 46.6023 105.005 46.2318C105.005 45.7888 105.198 45.4151 105.584 45.1084C105.97 44.8028 106.462 44.6502 107.06 44.6502C107.223 44.6502 107.407 44.6859 107.613 44.7585C107.613 44.0527 107.299 43.7004 106.67 43.7004C106.187 43.7004 105.816 43.8309 105.555 44.092L105.23 43.4421C105.377 43.3227 105.58 43.2213 105.838 43.1365C106.098 43.052 106.345 43.009 106.581 43.009C107.213 43.009 107.672 43.1532 107.959 43.4406C108.244 43.7282 108.387 44.185 108.387 44.8126V46.3758C108.387 46.758 108.501 47.0135 108.729 47.1412V47.5244C108.414 47.5244 108.178 47.4796 108.022 47.3909C107.866 47.3021 107.754 47.155 107.686 46.9493ZM107.613 45.3082C107.37 45.2526 107.199 45.2247 107.102 45.2247C106.713 45.2247 106.395 45.3263 106.149 45.5276C105.904 45.7286 105.78 45.9678 105.78 46.2426C105.78 46.6968 106.047 46.9245 106.578 46.9245C106.969 46.9245 107.313 46.7385 107.613 46.3664V45.3082ZM107.788 40.8679L106.863 42.2257H106.297L106.988 40.8679H107.788ZM113.402 47.4494V43.7422H111.594V47.4494H110.819V43.7422H110.186V43.092H110.819C110.819 42.5369 110.957 42.1009 111.23 41.7844C111.505 41.4677 111.867 41.3093 112.319 41.3093C112.544 41.3093 112.785 41.3496 113.043 41.4316L112.827 41.9993C112.669 41.9452 112.521 41.9176 112.386 41.9176C112.149 41.9176 111.954 42.0065 111.799 42.1856C111.645 42.3644 111.569 42.5911 111.569 42.8645C111.569 42.9382 111.577 43.0131 111.594 43.092H114.185V47.4494H113.402ZM113.704 41.4426C113.836 41.4426 113.95 41.4899 114.045 41.5825C114.138 41.677 114.185 41.7898 114.185 41.9191C114.185 42.0523 114.138 42.1662 114.045 42.2606C113.95 42.3536 113.836 42.4007 113.704 42.4007C113.574 42.4007 113.461 42.3536 113.367 42.2606C113.274 42.1662 113.227 42.0523 113.227 41.9191C113.227 41.787 113.272 41.6732 113.366 41.5815C113.458 41.4886 113.571 41.4426 113.704 41.4426ZM119.577 43.4421L119.191 43.9837C119.111 43.9056 118.971 43.8323 118.77 43.763C118.568 43.6935 118.372 43.6587 118.177 43.6587C117.754 43.6587 117.416 43.8058 117.168 44.1015C116.919 44.3956 116.794 44.7997 116.794 45.3139C116.794 45.8246 116.92 46.2137 117.172 46.4816C117.424 46.7495 117.774 46.8828 118.222 46.8828C118.568 46.8828 118.918 46.7495 119.271 46.4829L119.577 47.1328C119.161 47.3991 118.648 47.5322 118.034 47.5322C117.44 47.5322 116.948 47.3328 116.559 46.9338C116.172 46.5358 115.978 45.9942 115.978 45.3139C115.978 44.6183 116.18 44.0615 116.586 43.6408C116.993 43.22 117.548 43.009 118.252 43.009C118.48 43.009 118.725 43.0562 118.991 43.1507C119.256 43.245 119.45 43.3423 119.577 43.4421ZM123.755 46.9493C123.447 47.3379 122.973 47.5322 122.337 47.5322C121.996 47.5322 121.7 47.4077 121.45 47.1591C121.198 46.9107 121.074 46.6023 121.074 46.2318C121.074 45.7888 121.267 45.4151 121.653 45.1084C122.039 44.8028 122.53 44.6502 123.129 44.6502C123.291 44.6502 123.476 44.6859 123.681 44.7585C123.681 44.0527 123.367 43.7004 122.738 43.7004C122.255 43.7004 121.885 43.8309 121.624 44.092L121.299 43.4421C121.446 43.3227 121.649 43.2213 121.907 43.1365C122.166 43.052 122.413 43.009 122.649 43.009C123.281 43.009 123.741 43.1532 124.027 43.4406C124.313 43.7282 124.456 44.185 124.456 44.8126V46.3758C124.456 46.758 124.57 47.0135 124.797 47.1412V47.5244C124.482 47.5244 124.246 47.4796 124.091 47.3909C123.934 47.3021 123.823 47.155 123.755 46.9493ZM123.681 45.3082C123.438 45.2526 123.267 45.2247 123.17 45.2247C122.781 45.2247 122.464 45.3263 122.218 45.5276C121.972 45.7286 121.848 45.9678 121.848 46.2426C121.848 46.6968 122.115 46.9245 122.647 46.9245C123.037 46.9245 123.381 46.7385 123.681 46.3664V45.3082Z" fill="#0C111D"/>
</g>
<defs>
<clipPath id="clip0_4404_1509">
<rect width="128" height="51.2" fill="white"/>
</clipPath>
</defs>
</svg>
